<svg viewBox="0 0 57 56" xmlns="http://www.w3.org/2000/svg" aria-hidden="true">
  <path d="M44.796,6.605c0,3.645 -2.959,6.605 -6.605,6.605l-31.587,0c-3.645,0 -6.605,-2.959 -6.605,-6.605c0,-3.645 2.959,-6.605 6.605,-6.605l31.587,0c3.645,0 6.605,2.959 6.605,6.605Z" fill="#2fae6a" />
  <path d="M30.582,27.854c0,3.645 -2.959,6.605 -6.605,6.605l-17.373,0c-3.645,0 -6.605,-2.959 -6.605,-6.605c0,-3.645 2.959,-6.605 6.605,-6.605l17.373,0c3.645,0 6.605,2.959 6.605,6.605Z" fill="#2fae6a" />
  <path d="M57,49.103c0,3.645 -2.959,6.605 -6.605,6.605l-43.791,0c-3.645,0 -6.605,-2.959 -6.605,-6.605c0,-3.645 2.959,-6.605 6.605,-6.605l43.791,0c3.645,0 6.605,2.959 6.605,6.605Z" fill="#2fae6a" />
</svg>
